<?xml version="1.0" standalone="no"?>
<!DOCTYPE svg PUBLIC "-//W3C//DTD SVG 1.1//EN" "http://www.w3.org/Graphics/SVG/1.1/DTD/svg11.dtd" >
<svg xmlns="http://www.w3.org/2000/svg">
<metadata></metadata>
<defs>
<font id="webfontregular" horiz-adv-x="1237" >
<font-face units-per-em="2048" ascent="1638" descent="-410" />
<missing-glyph horiz-adv-x="618" />
<glyph horiz-adv-x="2048" />
<glyph horiz-adv-x="2048" />
<glyph unicode="&#xd;" horiz-adv-x="618" />
<glyph unicode=" "  horiz-adv-x="618" />
<glyph unicode="&#x09;" horiz-adv-x="618" />
<glyph unicode="&#xa0;" horiz-adv-x="618" />
<glyph unicode="!" horiz-adv-x="674" d="M205 92q0 54 38.5 92.5t92.5 38.5q55 0 93 -38t38 -93q0 -54 -38 -92.5t-93 -38.5q-54 0 -92.5 38.5t-38.5 92.5zM223 336v1161h228v-1161h-228z" />
<glyph unicode="&#x22;" horiz-adv-x="643" d="M86 879v557h164v-557h-164zM395 879v557h164v-557h-164z" />
<glyph unicode="#" horiz-adv-x="1575" d="M70 428l61 172h297l90 252h-315l61 172h316l155 436h191l-154 -436h250l156 436h190l-154 -436h291l-59 -172h-293l-90 -252h309l-61 -172h-307l-156 -434h-191l156 434h-252l-158 -434h-190l156 434h-299zM618 598h256l91 254h-256z" />
<glyph unicode="$" d="M137 317l189 84q24 -84 83.5 -132t157.5 -60v457q-204 84 -297.5 184.5t-93.5 236.5q0 159 104 261.5t287 126.5v112h105v-114q144 -12 235 -69.5t131 -162.5l-184 -92q-32 51 -77 82t-105 43v-402q244 -114 328.5 -208t84.5 -234q0 -179 -107.5 -291.5t-305.5 -136.5 v-170h-105v166q-86 0 -155.5 23.5t-130.5 68.5q-108 80 -144 227zM428 1102q0 -61 33 -107t106 -86v359q-72 -21 -105.5 -61t-33.5 -105zM672 215q80 21 124 72.5t44 128.5q0 66 -39 114t-129 93v-408z" />
<glyph unicode="%" horiz-adv-x="1622" d="M57 1094q0 179 87 282t241 103q155 0 240.5 -100.5t85.5 -284.5q0 -183 -86 -284t-240 -101t-241 101t-87 284zM238 1092q0 -130 37.5 -198.5t107.5 -68.5q73 0 110 67.5t37 201.5q0 129 -36.5 198.5t-106.5 69.5q-73 0 -111 -69t-38 -201zM317 -39l854 1518h138 l-854 -1518h-138zM913 348q0 181 87 283t241 102q155 0 240.5 -100.5t85.5 -284.5q0 -181 -87 -284t-241 -103q-153 0 -239.5 102.5t-86.5 284.5zM1092 346q0 -127 37.5 -196.5t107.5 -69.5q75 0 112 67.5t37 200.5q0 130 -37 198t-108 68q-74 0 -112 -68q-17 -32 -27 -83 t-10 -117z" />
<glyph unicode="&#x26;" horiz-adv-x="1374" d="M61 383q0 123 77.5 228.5t248.5 213.5l-59 64q-49 53 -75 116.5t-26 127.5q0 143 105 236t272 93q164 0 261.5 -83.5t97.5 -225.5q0 -107 -67.5 -195t-217.5 -176l305 -354q24 24 43.5 45.5t46.5 54.5q12 15 46 60q26 34 52 69l140 -149q-39 -64 -89 -122 q-46 -55 -106 -107l246 -279h-275l-118 139q-104 -89 -213 -131.5t-240 -42.5q-200 0 -327.5 117t-127.5 301zM289 389q0 -96 68 -164q34 -34 75.5 -50.5t93.5 -16.5q39 0 75 8t76 26q77 33 157 103l-320 369l-37 -25q-106 -68 -147 -124.5t-41 -125.5zM451 1137 q0 -32 11.5 -60t35.5 -55l73 -88l54 31q56 33 84 76q14 23 21 46t7 52q0 62 -38 101.5t-99 39.5q-67 0 -108 -39.5t-41 -103.5z" />
<glyph unicode="'" horiz-adv-x="334" d="M86 879v557h164v-557h-164z" />
<glyph unicode="(" horiz-adv-x="621" d="M168 539q0 147 14 276.5t45 256.5q59 248 179 460l163 -49q-107 -212 -159 -443q-26 -117 -39 -239t-13 -260q0 -282 51 -510.5t160 -423.5l-163 -53q-117 216 -177.5 465t-60.5 520z" />
<glyph unicode=")" horiz-adv-x="621" d="M45 -393q108 195 159.5 425.5t51.5 508.5q0 270 -51.5 499t-159.5 443l162 49q119 -212 178 -460t59 -533q0 -277 -59 -521.5t-178 -463.5z" />
<glyph unicode="*" horiz-adv-x="901" d="M106 989l226 115l-226 133l72 123l211 -135l-12 239h145l-14 -241l215 137l72 -123l-232 -127l232 -121l-76 -121l-211 140l14 -246h-145l10 244l-209 -138z" />
<glyph unicode="+" horiz-adv-x="1706" d="M254 528v166h514v527h170v-527h514v-166h-514v-528h-170v528h-514z" />
<glyph unicode="," horiz-adv-x="618" d="M115 -309l194 557l195 -72l-260 -536z" />
<glyph unicode="-" horiz-adv-x="829" d="M147 371v200h535v-200h-535z" />
<glyph unicode="." horiz-adv-x="618" d="M178 111q0 55 38 94t93 39q54 0 92.5 -39.5t38.5 -93.5t-38.5 -91.5t-92.5 -37.5q-55 0 -93 37.5t-38 91.5z" />
<glyph unicode="/" horiz-adv-x="887" d="M0 -190l717 1687h170l-717 -1687h-170z" />
<glyph unicode="0" d="M92 721q0 358 140 558t389 200q251 0 387.5 -201t136.5 -573q0 -347 -140.5 -545.5t-386.5 -198.5q-249 0 -387.5 199.5t-138.5 560.5zM330 719q0 -267 73.5 -410t210.5 -143q146 0 219.5 139.5t73.5 417.5q0 271 -73 412t-211 141q-144 0 -218.5 -141.5t-74.5 -415.5z " />
<glyph unicode="1" d="M238 1262l92 188h428v-1450h-217v1262h-303z" />
<glyph unicode="2" d="M43 0l547 655q52 62 87.5 114t61.5 102q47 94 47 169q0 109 -64 171.5t-177 62.5q-99 0 -164 -62t-74 -165h-229q0 195 132.5 313.5t354.5 118.5q212 0 334.5 -108.5t122.5 -297.5q0 -135 -70.5 -271t-298.5 -396l-186 -216h557v-190h-981z" />
<glyph unicode="3" d="M94 391h228v-12q0 -99 69 -160t187 -61q131 0 204.5 66.5t73.5 191.5q0 129 -75 196.5t-222 67.5l-22 -1l-23 -1v192l21 -1l22 -1q128 0 195 54t67 161q0 92 -59.5 148.5t-159.5 56.5q-107 0 -168 -52q-30 -25 -46.5 -62t-16.5 -82h-215q0 90 33 162.5t94 124.5 q118 100 325 100q201 0 318.5 -105.5t117.5 -283.5q0 -136 -66 -221t-185 -105q138 -24 211 -121.5t73 -257.5q0 -195 -136 -309.5t-370 -114.5q-211 0 -340 116q-67 61 -101 138t-34 176z" />
<glyph unicode="4" d="M27 297l852 1182h67v-1016h178v-166h-178v-297h-217v297h-702zM362 463h367v381l1 67l5 78z" />
<glyph unicode="5" d="M78 176l158 174q52 -94 131.5 -144t177.5 -50q144 0 234.5 92.5t90.5 243.5q0 144 -94.5 235.5t-247.5 91.5q-94 0 -171.5 -31t-137.5 -94l-59 13l182 743h692v-193h-549l-86 -323q58 23 115 36t113 13q209 0 340 -134t131 -349q0 -246 -153.5 -392.5t-409.5 -146.5 q-153 0 -264 52t-193 163z" />
<glyph unicode="6" d="M113 451q0 235 320 685l26 35l256 363l182 -92l-424 -553q43 20 93.5 33.5t97.5 13.5q194 0 322 -133t128 -340q0 -225 -142 -363.5t-376 -138.5q-217 0 -350 135t-133 355zM340 449q0 -131 72.5 -211t189.5 -80q129 0 205 78t76 213q0 137 -74 214.5t-205 77.5 q-116 0 -190 -81.5t-74 -210.5z" />
<glyph unicode="7" d="M150 1262v188h1009l-737 -1505l-193 86l598 1231h-677z" />
<glyph unicode="8" d="M115 389q0 145 68 245t192 140q-107 46 -159 122t-52 191q0 175 123.5 283.5t328.5 108.5q209 0 332 -109t123 -293q0 -108 -53.5 -185.5t-157.5 -117.5q121 -39 190.5 -141t69.5 -240q0 -201 -133.5 -316.5t-370.5 -115.5q-233 0 -367 114.5t-134 313.5zM344 410 q0 -118 72.5 -186t199.5 -68q129 0 202 67.5t73 186.5t-73 187.5t-202 68.5q-125 0 -198.5 -69.5t-73.5 -186.5zM397 1083q0 -92 59 -144t160 -52q104 0 163 51t59 145t-57.5 148.5t-159.5 54.5q-103 0 -163.5 -54.5t-60.5 -148.5z" />
<glyph unicode="9" d="M104 977q0 225 142.5 363.5t376.5 138.5q217 0 351 -134.5t134 -353.5q0 -233 -321 -685l-25 -36l-258 -362l-180 92l421 551q-44 -22 -93.5 -33.5t-96.5 -11.5q-196 0 -323.5 132.5t-127.5 338.5zM336 993q0 -139 74 -217t204 -78q116 0 190.5 82.5t74.5 212.5 t-72 210.5t-189 80.5q-130 0 -206 -78t-76 -213z" />
<glyph unicode=":" horiz-adv-x="674" d="M205 111q0 53 38.5 92t92.5 39q55 0 93 -38t38 -93q0 -54 -38.5 -91.5t-92.5 -37.5q-55 0 -93 37.5t-38 91.5zM205 795q0 53 39 91t92 38q55 0 93 -36.5t38 -92.5q0 -55 -38 -93t-93 -38t-93 38t-38 93z" />
<glyph unicode=";" horiz-adv-x="674" d="M119 -309l196 557l195 -72l-260 -536zM293 795q0 53 37.5 91t91.5 38q56 0 93.5 -36.5t37.5 -92.5q0 -55 -38 -93t-93 -38q-54 0 -91.5 38.5t-37.5 92.5z" />
<glyph unicode="&#x3c;" horiz-adv-x="1706" d="M264 530v160l1178 486v-185l-934 -381l934 -381v-182z" />
<glyph unicode="=" horiz-adv-x="1706" d="M254 322v165h1198v-165h-1198zM254 733v168h1198v-168h-1198z" />
<glyph unicode="&#x3e;" horiz-adv-x="1706" d="M264 47v182l934 381l-934 381v185l1178 -486v-160z" />
<glyph unicode="?" horiz-adv-x="1114" d="M207 1153q0 156 96 251t254 95q162 0 259 -94t97 -250q0 -114 -56 -187t-224 -157l-24 -12q-197 -98 -197 -185q0 -49 39.5 -87t93.5 -38q66 0 103.5 40.5t37.5 115.5h178v-20q0 -147 -83 -228.5t-236 -81.5q-142 0 -234 83.5t-92 211.5q0 116 62.5 194.5t248.5 168.5 q124 58 159.5 97.5t35.5 92.5q0 65 -47.5 109.5t-120.5 44.5q-81 0 -128.5 -53.5t-47.5 -147.5h-172l-1 18zM397 92q0 53 39 92t92 39q56 0 93.5 -38t37.5 -93q0 -54 -38 -92.5t-93 -38.5q-54 0 -92.5 38.5t-38.5 92.5z" />
<glyph unicode="@" horiz-adv-x="2048" d="M98 522q0 166 51.5 314t153.5 272q146 178 353 271.5t460 93.5q167 0 316 -45.5t254 -127.5q133 -103 198.5 -235.5t65.5 -300.5q0 -163 -65 -303t-185 -236q-69 -54 -150 -84q-43 -14 -83 -21t-85 -7q-105 0 -156.5 40.5t-51.5 125.5v4q-54 -86 -128 -127t-176 -41 q-151 0 -232 87t-81 249q0 231 138 394t333 163q89 0 149.5 -34t98.5 -108l55 107h154l-148 -586l-2 -12l-6 -37q0 -38 27 -61t69 -23q50 0 107 30t106 85q36 37 63 80.5t47 96.5q38 103 38 216q0 252 -187 410.5t-489 158.5q-139 0 -256 -30.5t-215 -94.5 q-180 -112 -278.5 -290.5t-98.5 -395.5q0 -312 210 -499t558 -187q166 0 323.5 48.5t291.5 142.5l67 -99q-147 -111 -317 -169t-357 -58q-192 0 -350.5 48t-281.5 142q-154 117 -232 275q-38 80 -57 168t-19 190zM741 444q0 -97 45 -150.5t129 -53.5q89 0 162.5 66 t100.5 173l55 228q-14 85 -62 130.5t-122 45.5q-125 0 -216.5 -128.5t-91.5 -310.5z" />
<glyph unicode="A" horiz-adv-x="1356" d="M-31 0l709 1522l708 -1522h-251l-166 377h-580l-170 -377h-250zM477 575h408l-150 334l-27 73l-28 93q-7 -28 -12.5 -48t-13.5 -42q-11 -39 -27 -76z" />
<glyph unicode="B" horiz-adv-x="1180" d="M168 0v1464h369q79 0 137 -4t96 -13q77 -17 129 -56q68 -50 105.5 -131.5t37.5 -178.5q0 -116 -54 -195t-157 -110q128 -19 201.5 -116.5t73.5 -243.5q0 -89 -30.5 -168.5t-89 -137.5t-149.5 -84t-298 -26h-371zM401 199h82q127 0 188 9.5t97 35.5q42 28 67 77t25 109 q0 70 -29 122t-83 81q-31 16 -78 25q-21 4 -47.5 6t-67.5 2h-72h-82v-467zM401 846h91q170 0 240.5 46.5t70.5 156.5q0 121 -65.5 169t-245.5 48h-91v-420z" />
<glyph unicode="C" horiz-adv-x="1470" d="M104 729q0 159 57.5 302t166 250t250.5 162.5t305 55.5q66 0 126 -9t120 -29q118 -36 227 -113l-13 -240q-101 86 -214 129q-56 21 -114.5 32t-121.5 11q-240 0 -390.5 -153.5t-150.5 -399.5q0 -238 147 -391.5t369 -153.5q66 0 125.5 11t121.5 35q117 45 226 139v-269 q-96 -69 -209 -103q-55 -16 -117.5 -25t-127.5 -9q-168 0 -309.5 54.5t-250 161t-166 249t-57.5 303.5z" />
<glyph unicode="D" horiz-adv-x="1516" d="M168 0v1464h321q315 0 440.5 -31t223.5 -106q126 -96 192 -248.5t66 -347.5q0 -194 -65 -344t-193 -250q-95 -73 -219 -106q-61 -15 -156 -23t-225 -8h-64h-321zM406 215h200q166 0 248.5 21.5t142.5 74.5q82 70 124 175.5t42 246.5q0 138 -41.5 244.5t-124.5 177.5 q-60 50 -149.5 73t-269.5 23h-86h-86v-1036z" />
<glyph unicode="E" horiz-adv-x="1090" d="M168 0v1464h817v-202h-579v-367h579v-209h-579v-473h579v-213h-817z" />
<glyph unicode="F" horiz-adv-x="1075" d="M168 0v1464h817v-202h-579v-365h579v-209h-579v-688h-238z" />
<glyph unicode="G" horiz-adv-x="1645" d="M104 729q0 167 56.5 306t165 245.5t254.5 161.5t307 55q172 0 308.5 -63t244.5 -193l-174 -131q-73 85 -166.5 127.5t-208.5 42.5q-236 0 -387.5 -152.5t-151.5 -396.5q0 -247 150.5 -402t390.5 -155q205 0 321.5 95t116.5 259v21h-352v201h580l1 -42l3 -96 q0 -309 -177 -480t-499 -171q-183 0 -322.5 52.5t-244 158.5t-160.5 251t-56 306z" />
<glyph unicode="H" horiz-adv-x="1532" d="M168 0v1464h238v-540h720v540h238v-1464h-238v711h-720v-711h-238z" />
<glyph unicode="I" horiz-adv-x="584" d="M172 0v1464h238v-1464h-238z" />
<glyph unicode="J" horiz-adv-x="807" d="M4 113l152 153q36 -44 70.5 -64t72.5 -20q68 0 97.5 46t29.5 171v1065h236v-1142q0 -186 -81.5 -273.5t-256.5 -87.5q-97 0 -173.5 36.5t-146.5 115.5z" />
<glyph unicode="K" horiz-adv-x="1270" d="M168 0v1464h238v-606l526 606h291l-580 -651l649 -813h-307l-579 748v-748h-238z" />
<glyph unicode="L" horiz-adv-x="963" d="M168 0v1464h238v-1251h532v-213h-770z" />
<glyph unicode="M" horiz-adv-x="1767" d="M27 0l346 1526l432 -924l30 -73l50 -126q20 61 66 160l18 40l422 923l354 -1526h-221l-162 723l-13 94l-14 106q-10 -54 -26 -104t-41 -98l-383 -780l-383 796q-25 51 -42 95l-30 91q0 -36 -1.5 -51.5t-6.5 -45.5q-6 -54 -19 -105l-157 -721h-219z" />
<glyph unicode="N" horiz-adv-x="1645" d="M168 0v1522l930 -895l77 -81q38 -41 82 -97v1015h220v-1521l-949 911q-21 20 -37 37q-7 7 -37 41q-36 42 -67 86v-1018h-219z" />
<glyph unicode="O" horiz-adv-x="1774" d="M104 729q0 156 58 296t169.5 248.5t253.5 166t302 57.5q156 0 297.5 -57t253.5 -166.5t171.5 -249.5t59.5 -295q0 -158 -58 -295.5t-170 -245.5t-255.5 -167.5t-298.5 -59.5q-158 0 -301.5 58.5t-253.5 166t-169 247.5t-59 296zM352 729q0 -112 40 -210q20 -51 48 -94 t68 -83q74 -77 172 -118.5t207 -41.5q108 0 204.5 41t171 118t116.5 177.5t42 210.5q0 113 -40 212t-115 176t-172.5 119t-206.5 42t-205.5 -40.5t-173.5 -119.5q-73 -75 -116 -177q-20 -51 -30 -102t-10 -110z" />
<glyph unicode="P" horiz-adv-x="1090" d="M168 0v1464h360q158 0 234 -17t133 -58q69 -51 108 -137.5t39 -190.5q0 -103 -39 -191t-108 -139q-55 -39 -132 -56.5t-235 -17.5h-47h-90v-657h-223zM406 852h61q199 0 264.5 42.5t65.5 152.5q0 118 -70 165.5t-260 47.5h-61v-408z" />
<glyph unicode="Q" horiz-adv-x="1774" d="M104 731q0 156 58.5 295.5t169 247.5t254 165.5t301.5 57.5q80 0 154 -14t147 -44q141 -57 251.5 -164.5t170 -247.5t59.5 -296q0 -151 -56.5 -288.5t-164.5 -243.5l311 -336h-284l-191 207q-96 -52 -198.5 -78.5t-211.5 -26.5q-150 0 -292.5 59t-251 165t-167.5 246 t-59 296zM352 731q0 -230 156 -387.5t385 -157.5q63 0 119 13t112 43l-262 282h289l141 -151q64 79 96.5 168.5t32.5 189.5q0 112 -39.5 210.5t-116 176.5t-174.5 120t-204 42t-204 -42t-173.5 -118.5t-116.5 -178t-41 -210.5z" />
<glyph unicode="R" horiz-adv-x="1147" d="M168 0v1464h332q147 0 227 -18.5t137 -63.5q68 -53 105 -137q17 -40 27 -87.5t10 -96.5q0 -176 -84 -275t-252 -120l504 -666h-269l-487 655h-27v-655h-223zM406 840h43q189 0 251 44t62 156q0 119 -67 169.5t-246 50.5h-43v-420z" />
<glyph unicode="S" horiz-adv-x="1124" d="M84 293l190 88q27 -97 99 -149t184 -52q106 0 168.5 59t62.5 158q0 128 -214 230l-46 22q-240 116 -321.5 213t-81.5 234q0 178 121.5 289.5t318.5 111.5q161 0 270 -62t152 -180l-186 -96q-43 68 -96 100.5t-121 32.5q-97 0 -153 -50t-56 -134q0 -132 248 -246l30 -14 q216 -99 297.5 -195t81.5 -239q0 -207 -131 -330t-354 -123q-187 0 -306 86t-157 246z" />
<glyph unicode="T" horiz-adv-x="1042" d="M14 1262v202h1014v-202h-387v-1262h-238v1262h-389z" />
<glyph unicode="U" horiz-adv-x="1524" d="M162 553v911h235v-889q0 -198 91.5 -297.5t273.5 -99.5q179 0 271.5 99.5t92.5 297.5v889h238v-911q0 -296 -150 -444t-452 -148q-301 0 -450.5 147t-149.5 445z" />
<glyph unicode="V" horiz-adv-x="1266" d="M-20 1464h247l328 -780q29 -67 47.5 -125.5t30.5 -109.5q12 54 33 114q11 32 21.5 60.5t25.5 60.5l327 780h246l-653 -1521z" />
<glyph unicode="W" horiz-adv-x="1923" d="M-6 1464h235l277 -739q29 -77 45 -128l33 -103q35 119 73 227l7 19l294 782l310 -797l41 -116l37 -117q9 45 27 99q13 42 24 74q6 17 20 54l275 745h237l-567 -1521l-334 835l-40 107l-32 98l-34 -111l-16 -50q-3 -8 -19 -48l-328 -831z" />
<glyph unicode="X" horiz-adv-x="1171" d="M0 0l475 766l-420 698h250l211 -358q10 -16 23.5 -41.5t39.5 -74.5l15 -29l35 66l45 77l223 360h244l-428 -694l461 -770h-263l-245 415l-4 7l-74 141l-37 -71l-43 -74l-256 -418h-252z" />
<glyph unicode="Y" horiz-adv-x="1214" d="M-10 1464h250l307 -497l27 -50l34 -67q3 6 10.5 25.5t18.5 40.5q15 30 33 57l315 491h238l-504 -794v-670h-236v670z" />
<glyph unicode="Z" horiz-adv-x="1180" d="M18 0l746 1262h-621v202h987l-739 -1251h748v-213h-1121z" />
<glyph unicode="[" horiz-adv-x="621" d="M199 -414v1911h381v-156h-191v-1597h191v-158h-381z" />
<glyph unicode="\" horiz-adv-x="887" d="M0 1497h170l717 -1687h-170z" />
<glyph unicode="]" horiz-adv-x="621" d="M43 -256h188v1597h-188v156h379v-1911h-379v158z" />
<glyph unicode="^" horiz-adv-x="2048" d="M418 899l497 561h218l495 -561h-207l-397 397l-399 -397h-207z" />
<glyph unicode="_" horiz-adv-x="1024" d="M0 -311h1024v-172h-1024v172z" />
<glyph unicode="`" horiz-adv-x="1024" d="M238 1364h225l190 -272h-123z" />
<glyph unicode="a" horiz-adv-x="1192" d="M80 475q0 227 117.5 366.5t308.5 139.5q116 0 198 -48.5t121 -139.5v155h217v-948h-217v123q-56 -80 -135 -121t-178 -41q-201 0 -316.5 138t-115.5 376zM307 469q0 -150 68 -232.5t192 -82.5q117 0 190.5 89t73.5 234q0 146 -68.5 228.5t-191.5 82.5q-122 0 -193 -85 t-71 -234z" />
<glyph unicode="b" horiz-adv-x="1192" d="M150 0v1550h217v-757q37 90 121 139q41 23 92 36t108 13q190 0 307 -139.5t117 -366.5q0 -239 -115 -376.5t-317 -137.5q-99 0 -177.5 40t-135.5 122v-123h-217zM360 477q0 -145 74.5 -234t192.5 -89q123 0 190.5 82t67.5 233t-70.5 235t-193.5 84t-192 -81.5t-69 -229.5 z" />
<glyph unicode="c" horiz-adv-x="930" d="M80 471q0 228 145.5 369t380.5 141q73 0 136 -15q32 -7 59 -17t57 -27v-244q-49 54 -116.5 83.5t-143.5 29.5q-133 0 -213 -86t-80 -228q0 -147 80.5 -232t222.5 -85q39 0 74.5 7t66.5 22q61 30 109 90v-250q-60 -33 -129.5 -50.5t-144.5 -17.5q-222 0 -364 142 q-70 71 -105 162t-35 206z" />
<glyph unicode="d" horiz-adv-x="1192" d="M80 475q0 227 117.5 366.5t308.5 139.5q116 0 198 -48.5t121 -139.5v757h217v-1550h-217v123q-56 -80 -135 -121t-178 -41q-201 0 -316.5 138t-115.5 376zM307 469q0 -150 68 -232.5t192 -82.5q116 0 190 89t74 234q0 146 -68.5 228.5t-191.5 82.5q-122 0 -193 -85 t-71 -234z" />
<glyph unicode="e" horiz-adv-x="1139" d="M80 471q0 223 139.5 366.5t358.5 143.5q229 0 357 -131t128 -367v-41h-758q0 -65 20 -116t59 -92q71 -74 189 -74q106 0 174.5 43.5t122.5 142.5l183 -102q-79 -142 -198 -213q-58 -34 -127.5 -52t-149.5 -18q-228 0 -363 138.5t-135 371.5zM319 588h519 q-12 101 -77.5 155t-178.5 54q-107 0 -171.5 -51.5t-91.5 -157.5z" />
<glyph unicode="f" horiz-adv-x="627" d="M14 758v190h166v254q0 189 78 279t244 90q17 0 35 -1t35.5 -3.5t37 -6.5t39.5 -10v-196q-25 15 -46 20.5t-32.5 7.5t-27.5 2q-77 0 -111.5 -48.5t-34.5 -161.5v-226h228v-190h-228v-758h-217v758h-166z" />
<glyph unicode="g" horiz-adv-x="1192" d="M80 475q0 227 117.5 366.5t308.5 139.5q116 0 198 -48.5t121 -139.5v155h217v-889q0 -277 -111 -391t-374 -114q-196 0 -314 82.5t-118 219.5l233 1q0 -29 14.5 -52.5t42.5 -40.5q52 -32 146 -32q138 0 200 61.5t62 203.5l2 126q-56 -80 -135 -121t-178 -41 q-201 0 -316.5 138t-115.5 376zM307 469q0 -150 68 -232.5t192 -82.5q117 0 190.5 89t73.5 234q0 146 -68.5 228.5t-191.5 82.5q-122 0 -193 -85t-71 -234z" />
<glyph unicode="h" horiz-adv-x="1204" d="M150 0v1550h204v-757q63 96 151.5 142t215.5 46q106 0 180.5 -33.5t116.5 -99.5q24 -39 36 -91q5 -24 8 -69.5t3 -112.5v-575h-219v487q0 186 -45.5 248t-161.5 62q-76 0 -135.5 -27.5t-93.5 -79.5q-23 -32 -33 -86.5t-10 -171.5v-432h-217z" />
<glyph unicode="i" horiz-adv-x="537" d="M131 1358q0 54 41 94.5t96 40.5q57 0 96 -38.5t39 -96.5q0 -56 -39 -96.5t-96 -40.5q-56 0 -96.5 41t-40.5 96zM160 0v948h217v-948h-217z" />
<glyph unicode="j" horiz-adv-x="537" d="M131 1358q0 54 41 94.5t96 40.5q57 0 96 -38.5t39 -96.5q0 -56 -39 -96.5t-96 -40.5q-56 0 -96.5 41t-40.5 96zM160 -446v1394h217v-1394h-217z" />
<glyph unicode="k" horiz-adv-x="1057" d="M150 0v1550h217v-995l397 393h268l-430 -418l471 -530h-280l-426 489v-489h-217z" />
<glyph unicode="l" horiz-adv-x="537" d="M160 0v1550h217v-1550h-217z" />
<glyph unicode="m" horiz-adv-x="1792" d="M150 0v948h204v-155q65 99 148 144.5t194 45.5q112 0 184 -46t111 -142q74 96 158.5 142t193.5 46q94 0 163.5 -34t109.5 -101q17 -28 26 -72t9 -125v-76v-575h-217v487q0 191 -40.5 251.5t-144.5 60.5q-128 0 -182.5 -81.5t-54.5 -285.5v-432h-219v487q0 176 -42.5 244 t-146.5 68q-65 0 -117.5 -29t-83.5 -80q-19 -32 -27.5 -82t-8.5 -176v-432h-217z" />
<glyph unicode="n" horiz-adv-x="1204" d="M150 0v948h204v-155q63 96 151.5 142t215.5 46q106 0 180.5 -33.5t116.5 -99.5q24 -39 36 -91q5 -24 8 -69.5t3 -112.5v-575h-219v487q0 186 -45.5 248t-161.5 62q-76 0 -135.5 -27.5t-93.5 -79.5q-23 -32 -33 -86.5t-10 -171.5v-432h-217z" />
<glyph unicode="o" horiz-adv-x="1204" d="M80 473q0 103 39 196t112 164t169.5 109.5t199.5 38.5q109 0 202 -37.5t168.5 -111t114.5 -166t39 -193.5q0 -104 -38 -196t-114 -165t-171.5 -112t-200.5 -39q-102 0 -197 38t-170 112t-114 166t-39 196zM309 471q0 -132 85.5 -223.5t207.5 -91.5t207.5 91.5t85.5 223.5 t-84.5 223.5t-208.5 91.5q-122 0 -207.5 -91.5t-85.5 -223.5z" />
<glyph unicode="p" horiz-adv-x="1192" d="M150 -446v1394h217v-155q37 90 121 139q41 23 92 36t108 13q190 0 307 -139.5t117 -366.5q0 -239 -115 -376.5t-317 -137.5q-99 0 -177.5 40t-135.5 122v-569h-217zM360 477q0 -147 73.5 -235t193.5 -88q123 0 190.5 82t67.5 233t-70.5 235t-193.5 84t-192 -81.5 t-69 -229.5z" />
<glyph unicode="q" horiz-adv-x="1192" d="M80 475q0 227 117.5 366.5t308.5 139.5q116 0 198 -48.5t121 -139.5v155h217v-1394h-217v569q-56 -80 -135 -121t-178 -41q-201 0 -316.5 138t-115.5 376zM307 469q0 -150 68 -232.5t192 -82.5q118 0 191 88t73 235q0 146 -68.5 228.5t-191.5 82.5q-122 0 -193 -85 t-71 -234z" />
<glyph unicode="r" horiz-adv-x="754" d="M150 0v950h217v-153q35 93 92 138.5t143 45.5q49 0 90 -11q48 -11 88 -32l-78 -184q-25 18 -60.5 28.5t-72.5 10.5q-107 0 -154.5 -86.5t-47.5 -290.5v-416h-217z" />
<glyph unicode="s" horiz-adv-x="872" d="M41 172l180 98q20 -71 75 -108t138 -37q72 0 114 33t42 92q0 77 -148 132l-77 30q-77 32 -129.5 63t-83.5 65q-60 65 -60 158q0 125 99.5 205t263.5 80q110 0 188 -40t115 -116l-154 -106q-16 44 -59 71t-99 27q-61 0 -99 -29.5t-38 -78.5q0 -73 168 -135q55 -19 82 -31 q130 -51 187 -117t57 -164q0 -141 -103 -222t-284 -81q-139 0 -230.5 51.5t-144.5 159.5z" />
<glyph unicode="t" horiz-adv-x="621" d="M35 758v190h166v359h217v-359h166v-190h-166v-758h-217v758h-166z" />
<glyph unicode="u" horiz-adv-x="1204" d="M143 479v469h217v-534q0 -138 57 -198t185 -60q126 0 184 60t58 198v534h217v-469q0 -271 -108.5 -394.5t-348.5 -123.5q-243 0 -352 122.5t-109 395.5z" />
<glyph unicode="v" horiz-adv-x="967" d="M-14 948h237l207 -477l24 -66l29 -105q5 21 10.5 42.5t12.5 42.5q12 38 33 86l206 477h236l-498 -1005z" />
<glyph unicode="w" horiz-adv-x="1536" d="M-14 948h231l213 -457q11 -27 25 -80q10 -43 22 -111q0 36 12 75q11 41 37 96l232 512h18l236 -512q8 -19 17 -44t15 -46t9.5 -41t3.5 -40q4 25 10 52t13 50q15 53 32 87l209 459h229l-493 -1005l-219 493l-41 101l-29 88l-39 -112l-27 -69l-225 -501z" />
<glyph unicode="x" horiz-adv-x="928" d="M-25 0l359 510l-307 438h239l133 -196l37 -58l29 -57l27 50l40 67l132 194h237l-307 -440l356 -508h-237l-176 249l-8 12q-51 77 -66 118l-39 -71l-37 -60l-172 -248h-240z" />
<glyph unicode="y" horiz-adv-x="965" d="M2 948h240l174 -491q8 -24 14 -45q2 -7 12.5 -47.5t18.5 -93.5q6 25 21 64.5t41 94.5l5 12l234 506h235l-684 -1394h-223l260 528z" />
<glyph unicode="z" horiz-adv-x="920" d="M-2 0l528 758h-475v190h828l-517 -758h517v-190h-881z" />
<glyph unicode="{" horiz-adv-x="1024" d="M162 442v179l21 -2l22 -1q126 0 178.5 59t52.5 202v247q0 146 22.5 206.5t80.5 94.5q41 26 107.5 38t182.5 12h45v-179l-24 1l-23 1q-107 0 -146.5 -41.5t-39.5 -173.5v-241q0 -155 -43.5 -220t-159.5 -94q113 -27 158 -92.5t45 -220.5v-240q0 -132 39.5 -174.5 t148.5 -42.5l22 1l23 1v-176h-63q-101 0 -165.5 12t-106.5 37q-56 32 -79.5 95.5t-23.5 203.5v248q0 144 -52 203t-179 59l-22 -1z" />
<glyph unicode="|" horiz-adv-x="1024" d="M424 -483v2048h178v-2048h-178z" />
<glyph unicode="}" horiz-adv-x="1024" d="M152 -238l23 -1l22 -1q108 0 147 42t39 175v240q0 153 45 219t160 94q-113 27 -159 93t-46 221v241q0 132 -38 173.5t-146 41.5l-23 -1l-24 -1v179h45q113 0 179 -11.5t109 -38.5q56 -33 80 -95q11 -30 17 -81.5t6 -124.5v-247q0 -144 52 -202.5t179 -58.5l21 1l22 2 v-179l-22 1l-21 1q-126 0 -178.5 -59.5t-52.5 -202.5v-248q0 -145 -22.5 -204.5t-80.5 -94.5q-41 -25 -107 -37t-181 -12h-45v176z" />
<glyph unicode="~" horiz-adv-x="1706" d="M178 434v187q102 70 200 106.5t187 36.5q60 0 123.5 -12t170.5 -48l42 -15q166 -58 250 -58q85 0 177.5 37t201.5 116v-184q-100 -69 -196 -105t-185 -36q-35 0 -49.5 1.5t-43.5 6.5q-46 9 -98 27l-76 26q-213 74 -319 74q-83 0 -175.5 -38t-209.5 -122z" />
<glyph unicode="&#xa0;" />
<glyph unicode="&#xa1;" horiz-adv-x="674" d="M205 1368q0 54 38 91.5t93 37.5t93 -37t38 -92t-38 -93t-93 -38t-93 39t-38 92zM223 -39v1163h228v-1163h-228z" />
<glyph unicode="&#xa2;" d="M186 735q0 196 116 324.5t321 161.5v161h104v-157q62 0 130 -17q67 -14 136 -43v-204q-55 35 -122 56q-40 13 -72.5 20t-71.5 7v-598q96 16 158 38q33 13 59 26.5t49 32.5v-209q-57 -33 -123 -51q-36 -10 -70.5 -15.5t-72.5 -5.5v-203h-104v207q-93 0 -173 38.5 t-143 106.5q-121 130 -121 324zM383 750q0 -122 62.5 -201.5t177.5 -102.5v596q-107 -18 -173.5 -99.5t-66.5 -192.5z" />
<glyph unicode="&#xa3;" d="M74 49q57 87 121.5 132.5t140.5 54.5q10 20 19.5 45t15.5 46q12 44 12 87q0 39 -11.5 83t-35.5 89h-250v141h188q-43 73 -66.5 149.5t-23.5 149.5q0 198 138.5 325.5t359.5 127.5q209 0 330.5 -113.5t140.5 -329.5l-223 -30q0 66 -20 118.5t-56 90.5q-65 71 -182 71 q-111 0 -181.5 -70t-70.5 -180q0 -80 74 -269l16 -40h358v-141h-313q6 -19 7.5 -26t4.5 -27l4 -56q0 -67 -24.5 -130t-71.5 -111h6q81 0 208 -45.5t179 -45.5q69 0 123 27.5t84 79.5l133 -119q-46 -83 -124 -129.5t-175 -46.5q-94 0 -255.5 48t-229.5 48q-58 0 -111.5 -25.5 t-107.5 -78.5z" />
<glyph unicode="&#xa4;" horiz-adv-x="1241" d="M76 432l203 205q-39 53 -60 115q-10 32 -15 63.5t-5 69.5q0 39 4 67t16 64q20 63 60 117l-203 204l92 93l203 -203q53 40 116 61t134 21q69 0 133.5 -20.5t117.5 -61.5l203 203l94 -93l-204 -204q19 -26 33.5 -54.5t25.5 -62.5q20 -63 20 -131q0 -39 -4 -68t-16 -65 q-20 -63 -59 -115l204 -205l-94 -92l-203 205q-55 -40 -117.5 -61t-131.5 -21q-75 0 -137.5 21t-114.5 61l-203 -205zM332 885q0 -119 84 -204t207 -85q119 0 204.5 84.5t85.5 204.5q0 119 -85 205t-205 86t-205.5 -86.5t-85.5 -204.5z" />
<glyph unicode="&#xa5;" d="M0 1452h240l307 -494q7 -11 12 -20t15 -30l34 -70q14 40 15 41q9 17 13 25q15 33 34 61l315 487h229l-266 -420h256v-145h-350l-102 -164h452v-145h-493v-578h-219v578h-482v145h445l-101 164h-344v145h256z" />
<glyph unicode="&#xa6;" horiz-adv-x="1024" d="M424 -350v758h178v-758h-178zM424 674v758h178v-758h-178z" />
<glyph unicode="&#xa7;" horiz-adv-x="1090" d="M84 539q0 128 67.5 223.5t194.5 144.5q-90 42 -135 109.5t-45 161.5q0 148 105.5 234.5t289.5 86.5q173 0 266 -86.5t93 -249.5v-20h-187q0 88 -49 135t-137 47q-79 0 -128.5 -40.5t-49.5 -102.5q0 -56 46 -98q47 -39 210 -105q218 -87 301.5 -186t83.5 -261 q0 -138 -69 -228t-206 -132q92 -43 144.5 -119.5t52.5 -169.5q0 -153 -105.5 -243.5t-289.5 -90.5q-175 0 -279 93.5t-104 248.5v21h202q0 -89 50 -137q47 -45 137 -45q88 0 139 40.5t51 108.5q0 94 -206 181l-42 18q-123 53 -184.5 86t-91.5 63q-62 59 -93.5 135.5 t-31.5 176.5zM301 537q0 -106 72.5 -181t177.5 -75q104 0 178 75t74 181q0 105 -74 181.5t-178 76.5q-103 0 -176.5 -75.5t-73.5 -182.5z" />
<glyph unicode="&#xa8;" horiz-adv-x="1024" d="M209 1255q0 47 36 83t85 36t84 -35q35 -33 35 -84q0 -53 -34 -87.5t-85 -34.5t-86 35t-35 87zM573 1255q0 47 36 83t85 36t84 -35q35 -33 35 -84q0 -53 -34 -87.5t-85 -34.5t-86 35t-35 87z" />
<glyph unicode="&#xa9;" horiz-adv-x="1706" d="M113 731q0 143 57 279.5t162.5 243t236.5 161.5t283 55t286 -54.5t239.5 -161t160.5 -240.5t55 -283q0 -154 -55 -286q-27 -66 -66.5 -124.5t-91.5 -109.5q-107 -105 -243.5 -163t-284.5 -58q-76 0 -143 13t-137 43q-134 57 -240 162t-162.5 241t-56.5 282zM223 731 q0 -126 48 -240.5t138 -203.5t204.5 -138t240.5 -49q124 0 238 47.5t211 141.5q89 88 135.5 201t46.5 241q0 131 -46.5 244t-135.5 202.5t-204.5 137t-244.5 47.5q-131 0 -243 -46t-201 -136.5t-138 -207t-49 -241.5zM457 725q0 207 109.5 331t291.5 124q148 0 243 -77 q49 -39 77 -89.5t28 -110.5h-166q-9 74 -60 114q-25 20 -56.5 30t-73.5 10q-98 0 -154.5 -86.5t-56.5 -239.5q0 -151 57.5 -234t163.5 -83q80 0 128.5 43.5t60.5 124.5h165q0 -65 -27.5 -120t-79.5 -97q-100 -82 -253 -82q-183 0 -290 119t-107 323z" />
<glyph unicode="&#xaa;" horiz-adv-x="895" d="M59 1133q0 158 89 256t231 98q87 0 149.5 -33.5t89.5 -97.5v108h164v-663h-164v86q-42 -57 -101 -85t-132 -28q-149 0 -237.5 96t-88.5 263zM231 1128q0 -105 51 -162t144 -57q87 0 143 62q28 32 42 72t14 92q0 102 -52 160.5t-145 58.5q-91 0 -145 -60q-26 -31 -39 -71 t-13 -95z" />
<glyph unicode="&#xab;" horiz-adv-x="930" d="M80 469l254 408l137 -84l-205 -324l205 -324l-137 -84zM459 469l254 408l139 -84l-207 -324l207 -324l-139 -84z" />
<glyph unicode="&#xac;" horiz-adv-x="1706" d="M254 696v166h1198v-502h-166v336h-1032z" />
<glyph unicode="&#xad;" horiz-adv-x="829" d="M147 371v200h535v-200h-535z" />
<glyph unicode="&#xae;" horiz-adv-x="1706" d="M113 731q0 146 57 283t166 246q103 103 234.5 156.5t281.5 53.5q155 0 288 -55.5t242 -165.5q101 -103 156 -236t55 -282q0 -154 -55.5 -288t-161.5 -236.5t-242.5 -159.5t-281.5 -57q-146 0 -282 57t-241.5 164t-160.5 241t-55 279zM223 731q0 -65 11 -122t36 -117 q46 -112 135 -201.5t205 -140t234 -50.5q131 0 247 47t209 138q87 84 136 197.5t49 238.5q0 133 -45.5 247t-136 205t-205.5 140t-244 49q-130 0 -240.5 -45.5t-200.5 -136t-140 -208.5t-50 -241zM551 330v829h319q172 0 261.5 -57t89.5 -168q0 -89 -48 -149.5t-137 -79.5 l185 -375h-199l-164 346h-129v-346h-178zM729 786h117q98 0 145 30.5t47 96.5q0 68 -48 101t-152 33h-109v-261z" />
<glyph unicode="&#xaf;" horiz-adv-x="1024" d="M248 1153v141h526v-141h-526z" />
<glyph unicode="&#xb0;" horiz-adv-x="674" d="M43 1163q0 125 86 211t209 86q119 0 207 -87t88 -210q0 -119 -87 -207t-210 -88t-208 86t-85 209zM152 1165q0 -74 54.5 -130t131.5 -56q76 0 130 54t54 132q0 75 -53.5 130t-130.5 55q-76 0 -131 -54t-55 -131z" />
<glyph unicode="&#xb1;" horiz-adv-x="1706" d="M254 14v168h1198v-168h-1198zM254 707v165h514v334h170v-334h514v-165h-514v-334h-170v334h-514z" />
<glyph unicode="&#xb2;" horiz-adv-x="817" d="M29 575l360 394q31 34 56 66.5t42 62.5q31 57 31 102q0 64 -42.5 101.5t-115.5 37.5q-66 0 -108.5 -36.5t-48.5 -97.5l-152 -1q0 116 87.5 187t234.5 71q140 0 220.5 -65t80.5 -178q0 -78 -46 -160q-22 -38 -71.5 -99.5t-124.5 -140.5l-125 -129h369v-115h-647z" />
<glyph unicode="&#xb3;" horiz-adv-x="817" d="M62 811h151v-8q0 -59 45 -96t123 -37q89 0 136.5 39.5t47.5 115.5q0 78 -49 118t-147 40h-29v115l13 -1l16 -1q84 0 128 32.5t44 96.5q0 55 -40 89t-106 34q-69 0 -110.5 -31.5t-41.5 -85.5h-141q0 54 21.5 97t61.5 74q77 60 214 60q133 0 211 -63t78 -170 q0 -82 -43.5 -132.5t-122.5 -62.5q91 -15 140 -73.5t49 -153.5q0 -117 -91 -185.5t-245 -68.5q-139 0 -225 69q-43 36 -65.5 82.5t-22.5 106.5z" />
<glyph unicode="&#xb4;" horiz-adv-x="1024" d="M371 1092l190 272h225l-292 -272h-123z" />
<glyph unicode="&#xb5;" horiz-adv-x="1208" d="M-92 -430l297 1511h229l-125 -635l-9 -55l-3 -49q0 -97 46.5 -147t135.5 -50q121 0 193 88t112 293l109 555h225l-145 -739l-15 -82l-4 -51q0 -36 15 -51t53 -15h20q9 0 14 2l-32 -159q-28 -8 -69 -13l-81 -4q-74 0 -111.5 31.5t-37.5 93.5v15q-40 -66 -108 -104 t-146 -38q-42 0 -75.5 6t-62.5 20q-56 26 -97 83l-99 -506h-229z" />
<glyph unicode="&#xb6;" horiz-adv-x="1024" d="M55 1130q0 158 107 253.5t284 95.5h523v-99h-117v-1380h-129v1380h-168v-1380h-131v784q-83 0 -149.5 25.5t-119.5 75.5q-100 95 -100 245z" />
<glyph unicode="&#xb8;" horiz-adv-x="1024" d="M274 -287l140 -28q59 -9 102 -9q51 0 76.5 17t25.5 51q0 40 -31.5 57t-101.5 17l-20 -1l-21 -1v184h86v-86h17q111 0 167 -43.5t56 -130.5q0 -83 -61 -127.5t-177 -44.5q-51 0 -119 10t-139 29v106z" />
<glyph unicode="&#xb9;" horiz-adv-x="817" d="M158 1333l61 113h281v-871h-142v758h-200z" />
<glyph unicode="&#xba;" horiz-adv-x="903" d="M59 1133q0 71 30 135.5t85.5 114.5t126.5 77t150 27q80 0 150.5 -26t126.5 -78t86 -115.5t30 -134.5q0 -36 -7 -71t-22 -67q-29 -64 -85.5 -114.5t-128 -78.5t-150.5 -28q-77 0 -148 27t-127.5 78t-86.5 115.5t-30 138.5zM231 1130q0 -93 65 -157t157 -64 q90 0 154.5 64.5t64.5 156.5q0 93 -63.5 157.5t-155.5 64.5q-93 0 -157.5 -64t-64.5 -158z" />
<glyph unicode="&#xbb;" horiz-adv-x="930" d="M82 145l205 324l-205 324l137 84l254 -408l-254 -408zM459 145l207 324l-207 324l139 84l254 -408l-254 -408z" />
<glyph unicode="&#xbc;" horiz-adv-x="1901" d="M150 1339l57 105h270v-811h-137v706h-190zM438 -39l887 1518h137l-887 -1518h-137zM1139 166l536 661h43v-567h113v-94h-113v-166h-137v166h-442zM1352 260h229v213l1 37l3 43z" />
<glyph unicode="&#xbd;" horiz-adv-x="1901" d="M150 1339l57 105h270v-811h-137v706h-190zM438 -39l887 1518h137l-887 -1518h-137zM1149 0l344 367q64 67 94.5 119.5t30.5 95.5q0 61 -40.5 96t-111.5 35q-63 0 -103 -34t-46 -93h-146q0 110 83.5 175.5t224.5 65.5q132 0 209 -60.5t77 -166.5q0 -75 -44.5 -151.5 t-186.5 -221.5l-117 -121h350v-106h-618z" />
<glyph unicode="&#xbe;" horiz-adv-x="1901" d="M60 852h143v-6q0 -56 43 -92q44 -33 119 -33q82 0 128 37.5t46 107.5q0 74 -47.5 111t-139.5 37l-14 -1l-14 -1v108l13 -1l13 -1q80 0 123 30t43 91q0 50 -37 82.5t-100 32.5q-69 0 -105.5 -27.5t-42.5 -83.5h-135q0 50 21.5 90.5t59.5 70.5q73 56 204 56 q128 0 202 -57.5t74 -159.5q0 -75 -41.5 -122.5t-117.5 -59.5q86 -13 133 -68.5t47 -144.5q0 -108 -87 -173t-233 -65q-132 0 -213 66q-42 35 -63.5 77.5t-21.5 98.5zM438 -39l887 1518h137l-887 -1518h-137zM1139 166l536 661h43v-567h113v-94h-113v-166h-137v166h-442z M1352 260h229v213l1 37l3 43z" />
<glyph unicode="&#xbf;" horiz-adv-x="1114" d="M193 305q0 114 56.5 188t225.5 156l20 10q199 100 199 187q0 50 -39.5 87.5t-93.5 37.5q-66 0 -104 -41t-38 -115h-177v21q0 148 83 228.5t236 80.5q141 0 233.5 -83.5t92.5 -211.5q0 -117 -63 -195t-249 -168q-121 -57 -156.5 -96.5t-35.5 -93.5q0 -67 48 -110.5 t120 -43.5q81 0 127.5 54t46.5 147h172l1 -19l1 -18q0 -158 -94.5 -252t-253.5 -94q-163 0 -260.5 94t-97.5 250zM449 1368q0 54 38 91.5t93 37.5t93 -37t38 -92q0 -54 -39.5 -92.5t-91.5 -38.5q-56 0 -93.5 38.5t-37.5 92.5z" />
<glyph unicode="&#xc0;" horiz-adv-x="1356" d="M-31 0l709 1522l708 -1522h-251l-166 377h-580l-170 -377h-250zM404 1880h225l190 -272h-123zM477 575h408l-150 334l-27 73l-28 93q-7 -28 -12.5 -48t-13.5 -42q-11 -39 -27 -76z" />
<glyph unicode="&#xc1;" horiz-adv-x="1356" d="M-31 0l709 1522l708 -1522h-251l-166 377h-580l-170 -377h-250zM477 575h408l-150 334l-27 73l-28 93q-7 -28 -12.5 -48t-13.5 -42q-11 -39 -27 -76zM537 1608l190 272h225l-292 -272h-123z" />
<glyph unicode="&#xc2;" horiz-adv-x="1356" d="M-31 0l709 1522l708 -1522h-251l-166 377h-580l-170 -377h-250zM381 1608l193 272h208l193 -272h-123l-174 157l-174 -157h-123zM477 575h408l-150 334l-27 73l-28 93q-7 -28 -12.5 -48t-13.5 -42q-11 -39 -27 -76z" />
<glyph unicode="&#xc3;" horiz-adv-x="1356" d="M-31 0l709 1522l708 -1522h-251l-166 377h-580l-170 -377h-250zM385 1624q22 104 69 156.5t120 52.5q20 0 30 -2l31 -6l117 -31l18 -3l29 -1q31 0 52 17.5t30 49.5h90q-18 -99 -69.5 -153.5t-125.5 -54.5l-26 1l-27 5l-124 32l-24 4l-14 1q-35 0 -54.5 -15.5t-31.5 -52.5 h-90zM477 575h408l-150 334l-27 73l-28 93q-7 -28 -12.5 -48t-13.5 -42q-11 -39 -27 -76z" />
<glyph unicode="&#xc4;" horiz-adv-x="1356" d="M-31 0l709 1522l708 -1522h-251l-166 377h-580l-170 -377h-250zM375 1771q0 47 36 83t85 36t84 -35q35 -33 35 -84q0 -53 -34 -87.5t-85 -34.5t-86 35t-35 87zM477 575h408l-150 334l-27 73l-28 93q-7 -28 -12.5 -48t-13.5 -42q-11 -39 -27 -76zM739 1771q0 47 36 83 t85 36t84 -35q35 -33 35 -84q0 -53 -34 -87.5t-85 -34.5t-86 35t-35 87z" />
<glyph unicode="&#xc5;" horiz-adv-x="1356" d="M-31 0l684 1464h52l681 -1464h-251l-166 377h-580l-170 -377h-250zM442 1735q0 100 68.5 168.5t167.5 68.5q97 0 167 -70t70 -167q0 -99 -68.5 -167.5t-168.5 -68.5t-168 68t-68 168zM477 575h408l-150 334l-27 73l-28 93q-7 -28 -12.5 -48t-13.5 -42q-11 -39 -27 -76z M565 1735q0 -48 33.5 -80.5t81.5 -32.5q46 0 80.5 33.5t34.5 79.5t-34 80t-81 34q-48 0 -81.5 -33.5t-33.5 -80.5z" />
<glyph unicode="&#xc6;" horiz-adv-x="1866" d="M-31 0l684 1464h676l84 -202h-536l129 -359h491l78 -209h-490l179 -481h538l80 -213h-772l-139 377h-582l-170 -377h-250zM477 575h422l-123 334l-43 127q-7 25 -14.5 55.5t-13.5 61.5q-10 -51 -30 -109q-13 -40 -20 -58t-24 -56z" />
<glyph unicode="&#xc7;" horiz-adv-x="1470" d="M104 729q0 159 57.5 302t166 250t250.5 162.5t305 55.5q66 0 126 -9t120 -29q118 -36 227 -113l-13 -240q-101 86 -214 129q-56 21 -114.5 32t-121.5 11q-240 0 -390.5 -153.5t-150.5 -399.5q0 -238 147 -391.5t369 -153.5q66 0 125.5 11t121.5 35q117 45 226 139v-269 q-96 -69 -209 -103q-55 -16 -117.5 -25t-127.5 -9l-1 -47h17q111 0 167 -43.5t56 -130.5q0 -83 -61 -127.5t-177 -44.5q-51 0 -119 10t-139 29v106l140 -28q59 -9 102 -9q51 0 76.5 17t25.5 51q0 40 -31.5 57t-101.5 17l-20 -1l-21 -1v149q-117 10 -224 51 q-140 54 -248.5 160.5t-166 249t-57.5 303.5z" />
<glyph unicode="&#xc8;" horiz-adv-x="1090" d="M168 0v1464h817v-202h-579v-367h579v-209h-579v-473h579v-213h-817zM306 1880h225l190 -272h-123z" />
<glyph unicode="&#xc9;" horiz-adv-x="1090" d="M168 0v1464h817v-202h-579v-367h579v-209h-579v-473h579v-213h-817zM439 1608l190 272h225l-292 -272h-123z" />
<glyph unicode="&#xca;" horiz-adv-x="1090" d="M168 0v1464h817v-202h-579v-367h579v-209h-579v-473h579v-213h-817zM283 1608l193 272h208l193 -272h-123l-174 157l-174 -157h-123z" />
<glyph unicode="&#xcb;" horiz-adv-x="1090" d="M168 0v1464h817v-202h-579v-367h579v-209h-579v-473h579v-213h-817zM277 1771q0 47 36 83t85 36t84 -35q35 -33 35 -84q0 -53 -34 -87.5t-85 -34.5t-86 35t-35 87zM641 1771q0 47 36 83t85 36t84 -35q35 -33 35 -84q0 -53 -34 -87.5t-85 -34.5t-86 35t-35 87z" />
<glyph unicode="&#xcc;" horiz-adv-x="584" d="M19 1880h225l190 -272h-123zM172 0v1464h238v-1464h-238z" />
<glyph unicode="&#xcd;" horiz-adv-x="584" d="M152 1608l190 272h225l-292 -272h-123zM172 0v1464h238v-1464h-238z" />
<glyph unicode="&#xce;" horiz-adv-x="584" d="M-4 1608l193 272h208l193 -272h-123l-174 157l-174 -157h-123zM172 0v1464h238v-1464h-238z" />
<glyph unicode="&#xcf;" horiz-adv-x="584" d="M-10 1771q0 47 36 83t85 36t84 -35q35 -33 35 -84q0 -53 -34 -87.5t-85 -34.5t-86 35t-35 87zM172 0v1464h238v-1464h-238zM354 1771q0 47 36 83t85 36t84 -35q35 -33 35 -84q0 -53 -34 -87.5t-85 -34.5t-86 35t-35 87z" />
<glyph unicode="&#xd0;" horiz-adv-x="1645" d="M104 729q0 167 56.5 306t165 245.5t254.5 161.5t307 55q172 0 308.5 -63t244.5 -193l-174 -131q-73 85 -166.5 127.5t-208.5 42.5q-236 0 -387.5 -152.5t-151.5 -396.5q0 -247 150.5 -402t390.5 -155q205 0 321.5 95t116.5 259v21h-352v201h580l1 -42l3 -96 q0 -309 -177 -480t-499 -171q-183 0 -322.5 52.5t-244 158.5t-160.5 251t-56 306zM524 1876l121 -1q9 -63 51.5 -93.5t126.5 -30.5q80 0 123 30t53 94l119 1q-15 -138 -85.5 -201t-209.5 -63q-138 0 -211 63.5t-88 200.5z" />
<glyph unicode="&#xd1;" horiz-adv-x="1645" d="M168 0v1522l930 -895l77 -81q38 -41 82 -97v1015h220v-1521l-949 911q-21 20 -37 37q-7 7 -37 41q-36 42 -67 86v-1018h-219zM530 1624q22 104 69 156.5t120 52.5q20 0 30 -2l31 -6l117 -31l18 -3l29 -1q31 0 52 17.5t30 49.5h90q-18 -99 -69.5 -153.5t-125.5 -54.5 l-26 1l-27 5l-124 32l-24 4l-14 1q-35 0 -54.5 -15.5t-31.5 -52.5h-90z" />
<glyph unicode="&#xd2;" horiz-adv-x="1774" d="M104 729q0 156 58 296t169.5 248.5t253.5 166t302 57.5q156 0 297.5 -57t253.5 -166.5t171.5 -249.5t59.5 -295q0 -158 -58 -295.5t-170 -245.5t-255.5 -167.5t-298.5 -59.5q-158 0 -301.5 58.5t-253.5 166t-169 247.5t-59 296zM352 729q0 -112 40 -210q20 -51 48 -94 t68 -83q74 -77 172 -118.5t207 -41.5q108 0 204.5 41t171 118t116.5 177.5t42 210.5q0 113 -40 212t-115 176t-172.5 119t-206.5 42t-205.5 -40.5t-173.5 -119.5q-73 -75 -116 -177q-20 -51 -30 -102t-10 -110zM613 1880h225l190 -272h-123z" />
<glyph unicode="&#xd3;" horiz-adv-x="1774" d="M104 729q0 156 58 296t169.5 248.5t253.5 166t302 57.5q156 0 297.5 -57t253.5 -166.5t171.5 -249.5t59.5 -295q0 -158 -58 -295.5t-170 -245.5t-255.5 -167.5t-298.5 -59.5q-158 0 -301.5 58.5t-253.5 166t-169 247.5t-59 296zM352 729q0 -112 40 -210q20 -51 48 -94 t68 -83q74 -77 172 -118.5t207 -41.5q108 0 204.5 41t171 118t116.5 177.5t42 210.5q0 113 -40 212t-115 176t-172.5 119t-206.5 42t-205.5 -40.5t-173.5 -119.5q-73 -75 -116 -177q-20 -51 -30 -102t-10 -110zM746 1608l190 272h225l-292 -272h-123z" />
<glyph unicode="&#xd4;" horiz-adv-x="1774" d="M104 729q0 156 58 296t169.5 248.5t253.5 166t302 57.5q156 0 297.5 -57t253.5 -166.5t171.5 -249.5t59.5 -295q0 -158 -58 -295.5t-170 -245.5t-255.5 -167.5t-298.5 -59.5q-158 0 -301.5 58.5t-253.5 166t-169 247.5t-59 296zM352 729q0 -112 40 -210q20 -51 48 -94 t68 -83q74 -77 172 -118.5t207 -41.5q108 0 204.5 41t171 118t116.5 177.5t42 210.5q0 113 -40 212t-115 176t-172.5 119t-206.5 42t-205.5 -40.5t-173.5 -119.5q-73 -75 -116 -177q-20 -51 -30 -102t-10 -110zM590 1608l193 272h208l193 -272h-123l-174 157l-174 -157h-123 z" />
<glyph unicode="&#xd5;" horiz-adv-x="1774" d="M104 729q0 156 58 296t169.5 248.5t253.5 166t302 57.5q156 0 297.5 -57t253.5 -166.5t171.5 -249.5t59.5 -295q0 -158 -58 -295.5t-170 -245.5t-255.5 -167.5t-298.5 -59.5q-158 0 -301.5 58.5t-253.5 166t-169 247.5t-59 296zM352 729q0 -112 40 -210q20 -51 48 -94 t68 -83q74 -77 172 -118.5t207 -41.5q108 0 204.5 41t171 118t116.5 177.5t42 210.5q0 113 -40 212t-115 176t-172.5 119t-206.5 42t-205.5 -40.5t-173.5 -119.5q-73 -75 -116 -177q-20 -51 -30 -102t-10 -110zM594 1624q22 104 69 156.5t120 52.5q20 0 30 -2l31 -6l117 -31 l18 -3l29 -1q31 0 52 17.5t30 49.5h90q-18 -99 -69.5 -153.5t-125.5 -54.5l-26 1l-27 5l-124 32l-24 4l-14 1q-35 0 -54.5 -15.5t-31.5 -52.5h-90z" />
<glyph unicode="&#xd6;" horiz-adv-x="1774" d="M104 729q0 156 58 296t169.5 248.5t253.5 166t302 57.5q156 0 297.5 -57t253.5 -166.5t171.5 -249.5t59.5 -295q0 -158 -58 -295.5t-170 -245.5t-255.5 -167.5t-298.5 -59.5q-158 0 -301.5 58.5t-253.5 166t-169 247.5t-59 296zM352 729q0 -112 40 -210q20 -51 48 -94 t68 -83q74 -77 172 -118.5t207 -41.5q108 0 204.5 41t171 118t116.5 177.5t42 210.5q0 113 -40 212t-115 176t-172.5 119t-206.5 42t-205.5 -40.5t-173.5 -119.5q-73 -75 -116 -177q-20 -51 -30 -102t-10 -110zM584 1771q0 47 36 83t85 36t84 -35q35 -33 35 -84 q0 -53 -34 -87.5t-85 -34.5t-86 35t-35 87zM948 1771q0 47 36 83t85 36t84 -35q35 -33 35 -84q0 -53 -34 -87.5t-85 -34.5t-86 35t-35 87z" />
<glyph unicode="&#xd7;" horiz-adv-x="1706" d="M287 152l458 458l-458 461l116 117l459 -459l461 459l117 -117l-459 -461l459 -458l-117 -119l-461 461l-459 -461z" />
<glyph unicode="&#xd8;" horiz-adv-x="1774" d="M104 731q0 156 58.5 295.5t168 247t254.5 167.5q71 28 147.5 43t154.5 15q115 0 227.5 -35.5t226.5 -109.5l172 184l129 -104l-176 -189q102 -114 152.5 -240.5t50.5 -273.5q0 -158 -58.5 -295.5t-170.5 -246t-255.5 -166.5t-297.5 -58q-134 0 -249.5 38.5t-223.5 117.5 l-181 -195l-124 109l184 196q-94 106 -141.5 231.5t-47.5 268.5zM352 731q0 -94 25.5 -173.5t79.5 -149.5l727 778q-65 46 -140 70t-157 24q-108 0 -206 -41t-172 -117.5t-117 -178.5q-20 -51 -30 -102t-10 -110zM571 289q65 -52 141 -78.5t160 -26.5q119 0 217 39.5 t177 120.5q74 77 114.5 178t40.5 209q0 94 -30 180.5t-88 161.5z" />
<glyph unicode="&#xd9;" horiz-adv-x="1524" d="M162 553v911h235v-889q0 -198 91.5 -297.5t273.5 -99.5q179 0 271.5 99.5t92.5 297.5v889h238v-911q0 -296 -150 -444t-452 -148q-301 0 -450.5 147t-149.5 445zM488 1880h225l190 -272h-123z" />
<glyph unicode="&#xda;" horiz-adv-x="1524" d="M162 553v911h235v-889q0 -198 91.5 -297.5t273.5 -99.5q179 0 271.5 99.5t92.5 297.5v889h238v-911q0 -296 -150 -444t-452 -148q-301 0 -450.5 147t-149.5 445zM621 1608l190 272h225l-292 -272h-123z" />
<glyph unicode="&#xdb;" horiz-adv-x="1524" d="M162 553v911h235v-889q0 -198 91.5 -297.5t273.5 -99.5q179 0 271.5 99.5t92.5 297.5v889h238v-911q0 -296 -150 -444t-452 -148q-301 0 -450.5 147t-149.5 445zM465 1608l193 272h208l193 -272h-123l-174 157l-174 -157h-123z" />
<glyph unicode="&#xdc;" horiz-adv-x="1524" d="M162 553v911h235v-889q0 -198 91.5 -297.5t273.5 -99.5q179 0 271.5 99.5t92.5 297.5v889h238v-911q0 -296 -150 -444t-452 -148q-301 0 -450.5 147t-149.5 445zM459 1771q0 47 36 83t85 36t84 -35q35 -33 35 -84q0 -53 -34 -87.5t-85 -34.5t-86 35t-35 87zM823 1771 q0 47 36 83t85 36t84 -35q35 -33 35 -84q0 -53 -34 -87.5t-85 -34.5t-86 35t-35 87z" />
<glyph unicode="&#xdd;" horiz-adv-x="584" d="M166 1771q0 51 38 89t89 38t89 -36.5t38 -90.5q0 -53 -36 -90t-91 -37q-54 0 -90.5 36.5t-36.5 90.5zM172 0v1464h238v-1464h-238z" />
<glyph unicode="&#xde;" horiz-adv-x="1124" d="M84 293l190 88q27 -97 99 -149t184 -52q106 0 168.5 59t62.5 158q0 128 -214 230l-46 22q-240 116 -321.5 213t-81.5 234q0 178 121.5 289.5t318.5 111.5q161 0 270 -62t152 -180l-186 -96q-43 68 -96 100.5t-121 32.5q-97 0 -153 -50t-56 -134q0 -132 248 -246l30 -14 q216 -99 297.5 -195t81.5 -239q0 -207 -131 -331q-62 -57 -139 -88.5t-169 -31.5v-49h17q111 0 167 -43.5t56 -130.5q0 -83 -61 -127.5t-177 -44.5q-51 0 -119 10t-139 29v106l140 -28q59 -9 102 -9q51 0 76.5 17t25.5 51q0 40 -31.5 57t-101.5 17l-20 -1l-21 -1v146 q-76 0 -143.5 22t-123.5 63q-118 86 -156 246z" />
<glyph unicode="&#xdf;" horiz-adv-x="1233" d="M47 743v205h117v234q0 171 122 280q61 53 141.5 81t178.5 28q192 0 308 -105.5t116 -281.5q0 -127 -68 -209.5t-208 -124.5q93 0 165 -30.5t126 -88.5q104 -109 104 -301q0 -225 -120.5 -347t-344.5 -122q-54 0 -95.5 9.5t-76.5 29.5v193q31 -15 64 -24q17 -3 34.5 -5 t36.5 -2q132 0 203.5 74t71.5 213q0 144 -84.5 216t-255.5 72h-35v201l17 -1l16 -1q105 0 164 54.5t59 156.5q0 112 -53 171.5t-152 59.5q-120 0 -168.5 -70t-48.5 -286v-1022h-217v743h-117z" />
<glyph unicode="&#xe0;" horiz-adv-x="1192" d="M80 475q0 227 117.5 366.5t308.5 139.5q116 0 198 -48.5t121 -139.5v155h217v-948h-217v123q-56 -80 -135 -121t-178 -41q-201 0 -316.5 138t-115.5 376zM307 469q0 -150 68 -232.5t192 -82.5q117 0 190.5 89t73.5 234q0 146 -68.5 228.5t-191.5 82.5q-122 0 -193 -85 t-71 -234zM332 1364h225l190 -272h-123z" />
<glyph unicode="&#xe1;" horiz-adv-x="1192" d="M80 475q0 227 117.5 366.5t308.5 139.5q116 0 198 -48.5t121 -139.5v155h217v-948h-217v123q-56 -80 -135 -121t-178 -41q-201 0 -316.5 138t-115.5 376zM307 469q0 -150 68 -232.5t192 -82.5q117 0 190.5 89t73.5 234q0 146 -68.5 228.5t-191.5 82.5q-122 0 -193 -85 t-71 -234zM465 1092l190 272h225l-292 -272h-123z" />
<glyph unicode="&#xe2;" horiz-adv-x="1192" d="M80 475q0 227 117.5 366.5t308.5 139.5q116 0 198 -48.5t121 -139.5v155h217v-948h-217v123q-56 -80 -135 -121t-178 -41q-201 0 -316.5 138t-115.5 376zM307 469q0 -150 68 -232.5t192 -82.5q117 0 190.5 89t73.5 234q0 146 -68.5 228.5t-191.5 82.5q-122 0 -193 -85 t-71 -234zM309 1092l193 272h208l193 -272h-123l-174 157l-174 -157h-123z" />
<glyph unicode="&#xe3;" horiz-adv-x="1192" d="M80 475q0 227 117.5 366.5t308.5 139.5q116 0 198 -48.5t121 -139.5v155h217v-948h-217v123q-56 -80 -135 -121t-178 -41q-201 0 -316.5 138t-115.5 376zM307 469q0 -150 68 -232.5t192 -82.5q117 0 190.5 89t73.5 234q0 146 -68.5 228.5t-191.5 82.5q-122 0 -193 -85 t-71 -234zM313 1108q22 104 69 156.5t120 52.5q20 0 30 -2l31 -6l117 -31l18 -3l29 -1q31 0 52 17.5t30 49.5h90q-18 -99 -69.5 -153.5t-125.5 -54.5l-26 1l-27 5l-124 32l-24 4l-14 1q-35 0 -54.5 -15.5t-31.5 -52.5h-90z" />
<glyph unicode="&#xe4;" horiz-adv-x="1192" d="M80 475q0 227 117.5 366.5t308.5 139.5q116 0 198 -48.5t121 -139.5v155h217v-948h-217v123q-56 -80 -135 -121t-178 -41q-201 0 -316.5 138t-115.5 376zM303 1255q0 47 36 83t85 36t84 -35q35 -33 35 -84q0 -53 -34 -87.5t-85 -34.5t-86 35t-35 87zM307 469 q0 -150 68 -232.5t192 -82.5q117 0 190.5 89t73.5 234q0 146 -68.5 228.5t-191.5 82.5q-122 0 -193 -85t-71 -234zM667 1255q0 47 36 83t85 36t84 -35q35 -33 35 -84q0 -53 -34 -87.5t-85 -34.5t-86 35t-35 87z" />
<glyph unicode="&#xe5;" horiz-adv-x="1192" d="M80 475q0 227 117.5 366.5t308.5 139.5q116 0 198 -48.5t121 -139.5v155h217v-948h-217v123q-56 -80 -135 -121t-178 -41q-201 0 -316.5 138t-115.5 376zM307 469q0 -150 68 -232.5t192 -82.5q117 0 190.5 89t73.5 234q0 146 -68.5 228.5t-191.5 82.5q-122 0 -193 -85 t-71 -234zM330 1284q0 99 69.5 168.5t167.5 69.5q97 0 166.5 -69.5t69.5 -168.5q0 -96 -68.5 -165.5t-167.5 -69.5q-100 0 -168.5 68t-68.5 167zM455 1284q0 -49 33 -81t79 -32q48 0 81.5 33.5t33.5 79.5q0 48 -34 81.5t-81 33.5q-46 0 -80 -34q-32 -34 -32 -81z" />
<glyph unicode="&#xe6;" horiz-adv-x="1765" d="M70 293q0 141 102 228t268 87q43 0 82.5 -4t73.5 -13q70 -17 129 -52l1 13l1 23q0 109 -70 165.5t-206 56.5q-73 0 -148 -25q-35 -11 -73.5 -29.5t-75.5 -42.5v203q69 39 145 60q38 10 76.5 15t83.5 5q143 0 232 -39.5t151 -128.5q59 81 151 124.5t203 43.5 q230 0 357.5 -133t127.5 -371v-37h-757q0 -65 20.5 -118t57.5 -91.5t83.5 -57.5t106.5 -19q101 0 172 45t125 145l182 -102q-80 -144 -197 -213.5t-278 -69.5q-121 0 -206 37.5t-148 118.5q-65 -74 -169 -116q-53 -20 -106.5 -30t-117.5 -10q-173 0 -276 91t-103 241z M295 297q0 -66 53 -104q26 -17 64 -27t84 -10q56 0 99 9t76 29q64 38 64 105q0 64 -59 103.5t-160 39.5q-102 0 -161.5 -39t-59.5 -106zM938 588h518q-12 102 -76 155.5t-178 53.5q-106 0 -171.5 -51.5t-92.5 -157.5z" />
<glyph unicode="&#xe7;" horiz-adv-x="930" d="M80 471q0 228 145.5 369t380.5 141q73 0 136 -15q32 -7 59 -17t57 -27v-244q-49 54 -116.5 83.5t-143.5 29.5q-133 0 -213 -86t-80 -228q0 -147 80.5 -232t222.5 -85q39 0 74.5 7t66.5 22q61 30 109 90v-250q-60 -33 -129.5 -50.5t-144.5 -17.5h-11v-47h17 q111 0 167 -43.5t56 -130.5q0 -83 -61 -127.5t-177 -44.5q-51 0 -119 10t-139 29v106l140 -28q59 -9 102 -9q51 0 76.5 17t25.5 51q0 40 -31.5 57t-101.5 17l-20 -1l-21 -1v152q-157 25 -267 135q-70 71 -105 162t-35 206z" />
<glyph unicode="&#xe8;" horiz-adv-x="1139" d="M80 471q0 223 139.5 366.5t358.5 143.5q229 0 357 -131t128 -367v-41h-758q0 -65 20 -116t59 -92q71 -74 189 -74q106 0 174.5 43.5t122.5 142.5l183 -102q-79 -142 -198 -213q-58 -34 -127.5 -52t-149.5 -18q-228 0 -363 138.5t-135 371.5zM304 1364h225l190 -272h-123z M319 588h519q-12 101 -77.5 155t-178.5 54q-107 0 -171.5 -51.5t-91.5 -157.5z" />
<glyph unicode="&#xe9;" horiz-adv-x="1139" d="M80 471q0 223 139.5 366.5t358.5 143.5q229 0 357 -131t128 -367v-41h-758q0 -65 20 -116t59 -92q71 -74 189 -74q106 0 174.5 43.5t122.5 142.5l183 -102q-79 -142 -198 -213q-58 -34 -127.5 -52t-149.5 -18q-228 0 -363 138.5t-135 371.5zM319 588h519 q-12 101 -77.5 155t-178.5 54q-107 0 -171.5 -51.5t-91.5 -157.5zM437 1092l190 272h225l-292 -272h-123z" />
<glyph unicode="&#xea;" horiz-adv-x="1139" d="M80 471q0 223 139.5 366.5t358.5 143.5q229 0 357 -131t128 -367v-41h-758q0 -65 20 -116t59 -92q71 -74 189 -74q106 0 174.5 43.5t122.5 142.5l183 -102q-79 -142 -198 -213q-58 -34 -127.5 -52t-149.5 -18q-228 0 -363 138.5t-135 371.5zM281 1092l193 272h208 l193 -272h-123l-174 157l-174 -157h-123zM319 588h519q-12 101 -77.5 155t-178.5 54q-107 0 -171.5 -51.5t-91.5 -157.5z" />
<glyph unicode="&#xeb;" horiz-adv-x="1139" d="M80 471q0 223 139.5 366.5t358.5 143.5q229 0 357 -131t128 -367v-41h-758q0 -65 20 -116t59 -92q71 -74 189 -74q106 0 174.5 43.5t122.5 142.5l183 -102q-79 -142 -198 -213q-58 -34 -127.5 -52t-149.5 -18q-228 0 -363 138.5t-135 371.5zM275 1255q0 47 36 83t85 36 t84 -35q35 -33 35 -84q0 -53 -34 -87.5t-85 -34.5t-86 35t-35 87zM319 588h519q-12 101 -77.5 155t-178.5 54q-107 0 -171.5 -51.5t-91.5 -157.5zM639 1255q0 47 36 83t85 36t84 -35q35 -33 35 -84q0 -53 -34 -87.5t-85 -34.5t-86 35t-35 87z" />
<glyph unicode="&#xec;" horiz-adv-x="537" d="M-6 1364h225l190 -272h-123zM160 0v948h217v-948h-217z" />
<glyph unicode="&#xed;" horiz-adv-x="537" d="M127 1092l190 272h225l-292 -272h-123zM160 0v948h217v-948h-217z" />
<glyph unicode="&#xee;" horiz-adv-x="537" d="M-29 1092l193 272h208l193 -272h-123l-174 157l-174 -157h-123zM160 0v948h217v-948h-217z" />
<glyph unicode="&#xef;" horiz-adv-x="537" d="M-35 1255q0 47 36 83t85 36t84 -35q35 -33 35 -84q0 -53 -34 -87.5t-85 -34.5t-86 35t-35 87zM160 0v948h217v-948h-217zM329 1255q0 47 36 83t85 36t84 -35q35 -33 35 -84q0 -53 -34 -87.5t-85 -34.5t-86 35t-35 87z" />
<glyph unicode="&#xf0;" horiz-adv-x="1192" d="M80 475q0 227 117.5 366.5t308.5 139.5q116 0 198 -48.5t121 -139.5v155h217v-889q0 -277 -111 -391t-374 -114q-196 0 -314 82.5t-118 219.5l233 1q0 -29 14.5 -52.5t42.5 -40.5q52 -32 146 -32q138 0 200 61.5t62 203.5l2 126q-56 -80 -135 -121t-178 -41 q-201 0 -316.5 138t-115.5 376zM297 1360l121 -1q9 -63 51.5 -93.5t126.5 -30.5q80 0 123 30t53 94l119 1q-15 -138 -85.5 -201t-209.5 -63q-138 0 -211 63.5t-88 200.5zM307 469q0 -150 68 -232.5t192 -82.5q117 0 190.5 89t73.5 234q0 146 -68.5 228.5t-191.5 82.5 q-122 0 -193 -85t-71 -234z" />
<glyph unicode="&#xf1;" horiz-adv-x="1204" d="M150 0v948h204v-155q63 96 151.5 142t215.5 46q106 0 180.5 -33.5t116.5 -99.5q24 -39 36 -91q5 -24 8 -69.5t3 -112.5v-575h-219v487q0 186 -45.5 248t-161.5 62q-76 0 -135.5 -27.5t-93.5 -79.5q-23 -32 -33 -86.5t-10 -171.5v-432h-217zM325 1108q22 104 69 156.5 t120 52.5q20 0 30 -2l31 -6l117 -31l18 -3l29 -1q31 0 52 17.5t30 49.5h90q-18 -99 -69.5 -153.5t-125.5 -54.5l-26 1l-27 5l-124 32l-24 4l-14 1q-35 0 -54.5 -15.5t-31.5 -52.5h-90z" />
<glyph unicode="&#xf2;" horiz-adv-x="1204" d="M80 473q0 103 39 196t112 164t169.5 109.5t199.5 38.5q109 0 202 -37.5t168.5 -111t114.5 -166t39 -193.5q0 -104 -38 -196t-114 -165t-171.5 -112t-200.5 -39q-102 0 -197 38t-170 112t-114 166t-39 196zM309 471q0 -132 85.5 -223.5t207.5 -91.5t207.5 91.5t85.5 223.5 t-84.5 223.5t-208.5 91.5q-122 0 -207.5 -91.5t-85.5 -223.5zM328 1364h225l190 -272h-123z" />
<glyph unicode="&#xf3;" horiz-adv-x="1204" d="M80 473q0 103 39 196t112 164t169.5 109.5t199.5 38.5q109 0 202 -37.5t168.5 -111t114.5 -166t39 -193.5q0 -104 -38 -196t-114 -165t-171.5 -112t-200.5 -39q-102 0 -197 38t-170 112t-114 166t-39 196zM309 471q0 -132 85.5 -223.5t207.5 -91.5t207.5 91.5t85.5 223.5 t-84.5 223.5t-208.5 91.5q-122 0 -207.5 -91.5t-85.5 -223.5zM461 1092l190 272h225l-292 -272h-123z" />
<glyph unicode="&#xf4;" horiz-adv-x="1204" d="M80 473q0 103 39 196t112 164t169.5 109.5t199.5 38.5q109 0 202 -37.5t168.5 -111t114.5 -166t39 -193.5q0 -104 -38 -196t-114 -165t-171.5 -112t-200.5 -39q-102 0 -197 38t-170 112t-114 166t-39 196zM305 1092l193 272h208l193 -272h-123l-174 157l-174 -157h-123z M309 471q0 -132 85.5 -223.5t207.5 -91.5t207.5 91.5t85.5 223.5t-84.5 223.5t-208.5 91.5q-122 0 -207.5 -91.5t-85.5 -223.5z" />
<glyph unicode="&#xf5;" horiz-adv-x="1204" d="M80 473q0 103 39 196t112 164t169.5 109.5t199.5 38.5q109 0 202 -37.5t168.5 -111t114.5 -166t39 -193.5q0 -104 -38 -196t-114 -165t-171.5 -112t-200.5 -39q-102 0 -197 38t-170 112t-114 166t-39 196zM309 471q0 -132 85.5 -223.5t207.5 -91.5t207.5 91.5t85.5 223.5 t-84.5 223.5t-208.5 91.5q-122 0 -207.5 -91.5t-85.5 -223.5zM309 1108q22 104 69 156.5t120 52.5q20 0 30 -2l31 -6l117 -31l18 -3l29 -1q31 0 52 17.5t30 49.5h90q-18 -99 -69.5 -153.5t-125.5 -54.5l-26 1l-27 5l-124 32l-24 4l-14 1q-35 0 -54.5 -15.5t-31.5 -52.5h-90z " />
<glyph unicode="&#xf6;" horiz-adv-x="1204" d="M80 473q0 103 39 196t112 164t169.5 109.5t199.5 38.5q109 0 202 -37.5t168.5 -111t114.5 -166t39 -193.5q0 -104 -38 -196t-114 -165t-171.5 -112t-200.5 -39q-102 0 -197 38t-170 112t-114 166t-39 196zM299 1255q0 47 36 83t85 36t84 -35q35 -33 35 -84 q0 -53 -34 -87.5t-85 -34.5t-86 35t-35 87zM309 471q0 -132 85.5 -223.5t207.5 -91.5t207.5 91.5t85.5 223.5t-84.5 223.5t-208.5 91.5q-122 0 -207.5 -91.5t-85.5 -223.5zM663 1255q0 47 36 83t85 36t84 -35q35 -33 35 -84q0 -53 -34 -87.5t-85 -34.5t-86 35t-35 87z" />
<glyph unicode="&#xf7;" horiz-adv-x="1706" d="M254 528v166h1198v-166h-1198zM717 229q0 57 40.5 97.5t96.5 40.5q57 0 97 -40.5t40 -97.5q0 -56 -39.5 -95.5t-97.5 -39.5q-56 0 -96.5 39t-40.5 96zM717 989q0 57 40.5 98t96.5 41q57 0 97 -41.5t40 -97.5t-39.5 -95.5t-97.5 -39.5q-56 0 -96.5 39t-40.5 96z" />
<glyph unicode="&#xf8;" horiz-adv-x="1204" d="M70 29l125 127q-55 71 -84 149.5t-29 163.5q0 222 150 368t376 146q46 0 90 -7t84 -22q80 -27 144 -84l125 127l84 -79l-127 -130q56 -73 85 -152t29 -163q0 -219 -151 -365.5t-377 -146.5q-92 0 -172 28q-38 13 -74 34t-67 49l-131 -125zM305 475q0 -45 11 -84 q10 -42 34 -86l428 418q-34 30 -78 47q-21 8 -41 12t-47 4q-131 0 -219 -89.5t-88 -221.5zM424 217q37 -28 80.5 -42.5t89.5 -14.5q129 0 215 87t86 218q0 45 -11 86.5t-34 83.5z" />
<glyph unicode="&#xf9;" horiz-adv-x="1204" d="M143 479v469h217v-534q0 -138 57 -198t185 -60q126 0 184 60t58 198v534h217v-469q0 -271 -108.5 -394.5t-348.5 -123.5q-243 0 -352 122.5t-109 395.5zM328 1364h225l190 -272h-123z" />
<glyph unicode="&#xfa;" horiz-adv-x="1204" d="M143 479v469h217v-534q0 -138 57 -198t185 -60q126 0 184 60t58 198v534h217v-469q0 -271 -108.5 -394.5t-348.5 -123.5q-243 0 -352 122.5t-109 395.5zM461 1092l190 272h225l-292 -272h-123z" />
<glyph unicode="&#xfb;" horiz-adv-x="1204" d="M143 479v469h217v-534q0 -138 57 -198t185 -60q126 0 184 60t58 198v534h217v-469q0 -271 -108.5 -394.5t-348.5 -123.5q-243 0 -352 122.5t-109 395.5zM305 1092l193 272h208l193 -272h-123l-174 157l-174 -157h-123z" />
<glyph unicode="&#xfc;" horiz-adv-x="1204" d="M143 479v469h217v-534q0 -138 57 -198t185 -60q126 0 184 60t58 198v534h217v-469q0 -271 -108.5 -394.5t-348.5 -123.5q-243 0 -352 122.5t-109 395.5zM299 1255q0 47 36 83t85 36t84 -35q35 -33 35 -84q0 -53 -34 -87.5t-85 -34.5t-86 35t-35 87zM663 1255q0 47 36 83 t85 36t84 -35q35 -33 35 -84q0 -53 -34 -87.5t-85 -34.5t-86 35t-35 87z" />
<glyph unicode="&#xfd;" horiz-adv-x="537" d="M160 0v948h217v-948h-217z" />
<glyph unicode="&#xfe;" horiz-adv-x="872" d="M41 172l180 98q20 -71 75 -108t138 -37q72 0 114 33t42 92q0 77 -148 132l-77 30q-77 32 -129.5 63t-83.5 65q-60 65 -60 158q0 125 99.5 205t263.5 80q110 0 188 -40t115 -116l-154 -106q-16 44 -59 71t-99 27q-61 0 -99 -29.5t-38 -78.5q0 -73 168 -135q55 -19 82 -31 q130 -51 187 -117t57 -164q0 -141 -103 -223q-48 -37 -109 -58t-137 -21v-48h17q111 0 167 -43.5t56 -130.5q0 -83 -61 -127.5t-177 -44.5q-51 0 -119 10t-139 29v106l140 -28q59 -9 102 -9q51 0 76.5 17t25.5 51q0 40 -31.5 57t-101.5 17l-20 -1l-21 -1v147q-51 0 -96 13 t-87 37q-91 51 -144 159z" />
<glyph unicode="&#xff;" horiz-adv-x="965" d="M2 948h240l174 -491q8 -24 14 -45q2 -7 12.5 -47.5t18.5 -93.5q6 25 21 64.5t41 94.5l5 12l234 506h235l-684 -1394h-223l260 528zM180 1255q0 47 36 83t85 36t84 -35q35 -33 35 -84q0 -53 -34 -87.5t-85 -34.5t-86 35t-35 87zM544 1255q0 47 36 83t85 36t84 -35 q35 -33 35 -84q0 -53 -34 -87.5t-85 -34.5t-86 35t-35 87z" />
<glyph unicode="&#x152;" horiz-adv-x="2304" d="M109 731q0 154 57 293t168 250q107 107 248.5 166t294.5 59q159 0 291 -63t237 -189l2 217h788v-202h-569v-361h569v-209h-569v-479h569v-213h-788l-2 225q-93 -126 -230 -193q-68 -33 -141.5 -50t-156.5 -17q-155 0 -293.5 57t-248.5 166.5t-168 248t-58 294.5zM352 731 q0 -111 39 -210.5t113 -176.5t171 -118.5t202 -41.5q106 0 201 40.5t169.5 119t114 179t39.5 208.5q0 112 -39.5 210.5t-113.5 176.5t-170.5 120t-200.5 42q-107 0 -202 -41t-169 -118.5t-114 -177.5t-40 -212z" />
<glyph unicode="&#x153;" horiz-adv-x="1944" d="M80 473q0 103 38 192.5t111 162.5t172.5 113t210.5 40q123 0 222.5 -51.5t166.5 -149.5q63 101 156.5 151t218.5 50q230 0 358 -131t128 -367v-41h-758q0 -65 20.5 -117t58.5 -93q71 -76 189 -76q101 0 172 45t125 145l182 -102q-78 -143 -197 -213t-278 -70 q-127 0 -219 45t-164 141q-86 -95 -180 -140.5t-207 -45.5q-70 0 -137.5 17.5t-126.5 52.5q-125 71 -193.5 186.5t-68.5 255.5zM307 471q0 -132 85.5 -223.5t207.5 -91.5q121 0 208 91.5t87 223.5q0 133 -86 224t-209 91q-122 0 -207.5 -91.5t-85.5 -223.5zM1118 588h518 q-12 102 -76 155.5t-178 53.5q-105 0 -171 -51t-93 -158z" />
<glyph unicode="&#x178;" horiz-adv-x="1214" d="M-10 1464h250l307 -497l27 -50l34 -67q3 6 10.5 25.5t18.5 40.5q15 30 33 57l315 491h238l-504 -794v-670h-236v670zM305 1771q0 47 36 83t85 36t84 -35q35 -33 35 -84q0 -53 -34 -87.5t-85 -34.5t-86 35t-35 87zM669 1771q0 47 36 83t85 36t84 -35q35 -33 35 -84 q0 -53 -34 -87.5t-85 -34.5t-86 35t-35 87z" />
<glyph unicode="&#x2c6;" horiz-adv-x="1024" d="M215 1092l193 272h208l193 -272h-123l-174 157l-174 -157h-123z" />
<glyph unicode="&#x2dc;" horiz-adv-x="1024" d="M219 1108q22 104 69 156.5t120 52.5q20 0 30 -2l31 -6l117 -31l18 -3l29 -1q31 0 52 17.5t30 49.5h90q-18 -99 -69.5 -153.5t-125.5 -54.5l-26 1l-27 5l-124 32l-24 4l-14 1q-35 0 -54.5 -15.5t-31.5 -52.5h-90z" />
<glyph unicode="&#x2000;" horiz-adv-x="986" />
<glyph unicode="&#x2001;" horiz-adv-x="1972" />
<glyph unicode="&#x2002;" horiz-adv-x="986" />
<glyph unicode="&#x2003;" horiz-adv-x="1972" />
<glyph unicode="&#x2004;" horiz-adv-x="657" />
<glyph unicode="&#x2005;" horiz-adv-x="493" />
<glyph unicode="&#x2006;" horiz-adv-x="328" />
<glyph unicode="&#x2007;" horiz-adv-x="328" />
<glyph unicode="&#x2008;" horiz-adv-x="246" />
<glyph unicode="&#x2009;" horiz-adv-x="394" />
<glyph unicode="&#x200a;" horiz-adv-x="109" />
<glyph unicode="&#x2010;" horiz-adv-x="829" d="M147 371v200h535v-200h-535z" />
<glyph unicode="&#x2011;" horiz-adv-x="829" d="M147 371v200h535v-200h-535z" />
<glyph unicode="&#x2012;" horiz-adv-x="829" d="M147 371v200h535v-200h-535z" />
<glyph unicode="&#x2013;" horiz-adv-x="1024" d="M0 399v146h1024v-146h-1024z" />
<glyph unicode="&#x2014;" horiz-adv-x="2048" d="M0 399v146h2048v-146h-2048z" />
<glyph unicode="&#x2018;" horiz-adv-x="618" d="M123 969l246 528l127 -45l-191 -545z" />
<glyph unicode="&#x2019;" horiz-adv-x="618" d="M123 954l190 543l183 -59l-246 -531z" />
<glyph unicode="&#x201a;" horiz-adv-x="618" d="M123 -299l190 545l183 -60l-246 -530z" />
<glyph unicode="&#x201c;" horiz-adv-x="905" d="M84 969l246 528l127 -45l-189 -545zM449 969l245 528l127 -45l-190 -545z" />
<glyph unicode="&#x201d;" horiz-adv-x="905" d="M84 954l190 543l183 -59l-246 -531zM449 954l190 543l182 -59l-246 -531z" />
<glyph unicode="&#x201e;" horiz-adv-x="905" d="M84 -299l190 545l183 -60l-246 -530zM449 -299l190 545l182 -60l-246 -530z" />
<glyph unicode="&#x2022;" horiz-adv-x="1208" d="M307 762q0 122 87.5 208.5t209.5 86.5q121 0 208 -86.5t87 -208.5t-87.5 -209.5t-209.5 -87.5t-208.5 87.5t-86.5 209.5z" />
<glyph unicode="&#x2026;" horiz-adv-x="2048" d="M211 111q0 55 38 94t93 39q54 0 92.5 -39.5t38.5 -93.5t-38.5 -91.5t-92.5 -37.5q-55 0 -93 37.5t-38 91.5zM893 111q0 55 38 94t93 39q54 0 92.5 -39.5t38.5 -93.5t-38.5 -91.5t-92.5 -37.5q-55 0 -93 37.5t-38 91.5zM1577 111q0 55 38 94t93 39q54 0 92.5 -39.5 t38.5 -93.5t-38.5 -91.5t-92.5 -37.5q-55 0 -93 37.5t-38 91.5z" />
<glyph unicode="&#x202f;" horiz-adv-x="394" />
<glyph unicode="&#x2039;" horiz-adv-x="627" d="M80 469l254 408l139 -84l-207 -324l207 -324l-139 -84z" />
<glyph unicode="&#x203a;" horiz-adv-x="545" d="M80 145l207 324l-207 324l139 84l254 -408l-254 -408z" />
<glyph unicode="&#x205f;" horiz-adv-x="493" />
<glyph unicode="&#x2122;" horiz-adv-x="1706" d="M225 1366v94h467v-94h-168v-448h-129v448h-170zM809 918v542h170l141 -360l133 360h170v-542h-114v428l-160 -428h-59l-166 428v-428h-115z" />
<glyph unicode="&#xe000;" horiz-adv-x="950" d="M0 0v950h950v-950h-950z" />
</font>
</defs>
</svg>
